<?xml version="1.0" encoding="utf-8"?>
<!-- Generator: Adobe Illustrator 14.0.0, SVG Export Plug-In . SVG Version: 6.00 Build 43363)  -->
<!DOCTYPE svg PUBLIC "-//W3C//DTD SVG 1.1//EN" "http://www.w3.org/Graphics/SVG/1.1/DTD/svg11.dtd">
<svg version="1.1" id="Layer_1" xmlns="http://www.w3.org/2000/svg" xmlns:xlink="http://www.w3.org/1999/xlink" x="0px" y="0px"
	 width="512px" height="512px" viewBox="0 0 512 512" enable-background="new 0 0 512 512" xml:space="preserve">
<path d="M390.5,144c0,0-154.7,0-167,0c-4.7,0-10.7-9.9-18.5-19c-7.1-8.3-14.7-13-20.5-13c-7.5,0-60.3,0-60.3,0
	c-15.5,0-28.2,8.9-28.2,24.3V370.9c0,15.5,12.7,29.1,28.2,29.1h266.3c15.5,0,25.5-13.6,25.5-29.1V168.8C416,153.3,406,144,390.5,144
	z M400,370.9c0,6-2.6,13.1-9.5,13.1H124.2c-6.5,0-12.2-6.2-12.2-13.1V208h288V370.9z M400,192H112v-55.7c0-9,10.3-8.3,12.2-8.3H168
	c0,0,7.4,0,11.3,0c3.9,0,8.6,1.6,14.3,8.3c12.1,14.3,15.5,23.7,29.9,23.7h167c6.6,0,9.5,2.2,9.5,8.8V192z"/>
</svg>
